inDegrees=no
num_controls=7
num_derivatives=13
num_iterations=110
num_multipliers=7
num_parameters=0
num_slacks=7
num_states=26
objective=0.508512
objective_accelerations=0.040107
objective_balance=0.003093
objective_effort=0.030338
objective_height=0.322768
objective_ligament=0.112207
solver_duration=1403.232160
status=Solve_Succeeded
success=true
DataType=double
version=3
OpenSimVersion=4.5
endheader
time	/jointset/ground_pelvis/pelvis_tilt/value	/jointset/ground_pelvis/pelvis_tx/value	/jointset/ground_pelvis/pelvis_ty/value	/jointset/hip_l/hip_flexion_l/value	/jointset/hip_l/hip_adduction_l/value	/jointset/hip_l/hip_rotation_l/value	/jointset/back/lumbar_extension/value	/jointset/patellofemoral_l/patellar_flexion_l/value	/jointset/knee_l/knee_flexion_l/value	/jointset/knee_l/knee_adduction_l/value	/jointset/knee_l/knee_rotation_l/value	/jointset/ankle_l/ankle_angle_l/value	/jointset/subtalar_l/subtalar_angle_l/value	/jointset/ground_pelvis/pelvis_tilt/speed	/jointset/ground_pelvis/pelvis_tx/speed	/jointset/ground_pelvis/pelvis_ty/speed	/jointset/hip_l/hip_flexion_l/speed	/jointset/hip_l/hip_adduction_l/speed	/jointset/hip_l/hip_rotation_l/speed	/jointset/back/lumbar_extension/speed	/jointset/patellofemoral_l/patellar_flexion_l/speed	/jointset/knee_l/knee_flexion_l/speed	/jointset/knee_l/knee_adduction_l/speed	/jointset/knee_l/knee_rotation_l/speed	/jointset/ankle_l/ankle_angle_l/speed	/jointset/subtalar_l/subtalar_angle_l/speed	/forceset/tau_hip_flexion_l	/forceset/tau_hip_adduction_l	/forceset/tau_hip_rotation_l	/forceset/tau_knee_flexion_l	/forceset/tau_ankle_angle_l	/forceset/tau_subtalar_angle_l	/forceset/tau_lumbar_extension	lambda_cid13_p0	lambda_cid13_p1	lambda_cid13_p2	lambda_cid13_p3	lambda_cid13_p4	lambda_cid13_p5	lambda_cid14_p0	/jointset/ground_pelvis/pelvis_tilt/accel	/jointset/ground_pelvis/pelvis_tx/accel	/jointset/ground_pelvis/pelvis_ty/accel	/jointset/hip_l/hip_flexion_l/accel	/jointset/hip_l/hip_adduction_l/accel	/jointset/hip_l/hip_rotation_l/accel	/jointset/back/lumbar_extension/accel	/jointset/patellofemoral_l/patellar_flexion_l/accel	/jointset/knee_l/knee_flexion_l/accel	/jointset/knee_l/knee_adduction_l/accel	/jointset/knee_l/knee_rotation_l/accel	/jointset/ankle_l/ankle_angle_l/accel	/jointset/subtalar_l/subtalar_angle_l/accel	gamma_cid13_p0	gamma_cid13_p1	gamma_cid13_p2	gamma_cid13_p3	gamma_cid13_p4	gamma_cid13_p5	gamma_cid14_p0
1.5	-0.002637198444246466	-0.01398954143424374	0.872441395507339	0.6093255120625916	-0.2964641825973418	-0.19223176583412	-0.7813637564726437	0.6455337004497154	0.6455337004497356	-0.06746943773559758	-0.1709630706344624	0.09645839267331874	0.03322443086012482	0.4177365227613722	0.2149106598090917	0.3473454107789997	-1.847444057856732	0.1918781855208577	-0.6303026218290214	0.861069031664781	-1.746767285154772	-1.746767285154765	0.0640568771464797	-0.01453875131286156	-0.3647655062118716	0.08517906686831619	-0.2018460078670799	0.07886710707945707	-0.008193231394521929	-0.1748100242521739	0.07884788813388979	-0.0002775333264880313	0.2771210375504565	-18.31947517180869	2.134081700352805	0.5693634776364653	-5.331149270855271	-665.9837607961017	-33.13945551814028	-19.68878642123449	0.1550774430041622	0.5994879650031418	-0.5804704707481665	-0.3068268661984256	0.5367440685159242	0.1839919769723306	1.709805182996843	-0.05428317548342801	-0.05428317548342833	-0.05614751573898512	-0.02336598799356826	0.3703491503713233	0.6649051801048674	2.035482985006625e-07	7.952677695204767e-07	-9.258135717385889e-07	4.245240001052975e-08	2.196672041035358e-07	3.623851477567572e-07	2.10737735160281e-07
1.51	0.001547466843060696	-0.01181071146361599	0.8758852886218743	0.590837409488332	-0.2945198798492543	-0.1985246394654734	-0.7726692222974351	0.6280650874488085	0.6280650874488301	-0.06683415622909442	-0.1711104015713963	0.09282936256666227	0.0341079740146554	0.4191334654362774	0.2208263480567001	0.3413769590720001	-1.849940027564759	0.1969354913141805	-0.6281783912977913	0.8776913124129813	-1.74673271270842	-1.746732712708422	0.06293804761697576	-0.01492021337776066	-0.3609898359670625	0.09149136210206982	-0.1934187556423378	0.07694683734251793	-0.008181293055616592	-0.1737758052173223	0.08165247060056066	-0.001292082065401834	0.2695003703618715	-17.26744577442937	2.323869454524035	0.6152109204310297	-5.473411116597216	-662.3594890608565	-33.41804064444643	-20.20810115659964	0.1225622872494592	0.5832700099871168	-0.6134246081256758	-0.1854948378409084	0.4832078871711071	0.2409018221103938	1.616465875949502	0.06567577883693117	0.06567577883559343	-0.1488653499776307	-0.04463927902789866	0.3888075889880265	0.6086412817374254	2.028274740002732e-07	8.031724035412295e-07	-9.251968981608163e-07	4.312381841458886e-08	2.260608862210807e-07	3.75388597790314e-07	2.103284916377466e-07
1.52	0.00574421347861727	-0.009573592459442476	0.8792678188018495	0.5723314446540422	-0.2925264072327445	-0.2047934181453354	-0.7638128600437021	0.6106034898371983	0.6106034898372137	-0.06621188595356703	-0.1712613677216397	0.08923961548794423	0.03505349003886899	0.42015279241182	0.2265684665182433	0.3350728238669747	-1.851016509862223	0.2017121592047312	-0.6254836315300799	0.8934346473698949	-1.745364207296374	-1.745364207296385	0.06145463095061336	-0.01526579397424987	-0.3569089006241589	0.09757364080489823	-0.1849915034176091	0.07502656760557523	-0.008169354716661571	-0.1727415861824796	0.08445705306722723	-0.002306630804321882	0.2618797031732777	-16.21745159777565	2.513757895723092	0.6613352280822685	-5.651707647209855	-658.7843456645051	-33.74108443527242	-20.6992701073275	0.07955430313144583	0.5647740077902678	-0.6476071703533183	-0.02292938408594998	0.480616487961478	0.2980978242685902	1.534016024739454	0.2125034176553318	0.2125034176553315	-0.1290649431106868	-0.01618969431160389	0.4314021699903919	0.6189018739198825	2.016523342357834e-07	8.065295314765515e-07	-9.215994345054853e-07	4.306967193640214e-08	2.327263474589873e-07	3.863715518337406e-07	2.090903510995631e-07
1.53	0.009949239190519236	-0.007280000588157607	0.8825856871423201	0.5538218282837787	-0.2904866315481868	-0.2110324673744732	-0.7548036608548575	0.5931622049538592	0.5931622049538404	-0.06560627828018863	-0.1714155632857823	0.08569211203949503	0.03605860111290952	0.4207860018711637	0.2321123639190462	0.3284499935453591	-1.850663624815365	0.2061885009077587	-0.622236686307425	0.9082381349073559	-1.742669230715154	-1.742669230715161	0.05960405649406754	-0.01556538408183559	-0.352549059395811	0.1034008492499875	-0.1763377721620227	0.07285095267034042	-0.008158768787931063	-0.1720382980536644	0.0874596313158388	-0.003425823377658851	0.2540705219471885	-15.12374876872	2.747757200410958	0.6932105256397258	-5.7553905077831	-655.3698664820638	-34.04916390483305	-21.15917023782282	0.04527107023336623	0.5435743942481408	-0.6771998845867031	0.1008903582378574	0.4229816425714941	0.3516250239386468	1.428456794301908	0.3314844092873375	0.3314844092879753	-0.2223920434271927	-0.03583743655352652	0.4447142229967669	0.5574503910647245	1.999944845031869e-07	8.050549341961032e-07	-9.148348813927483e-07	4.224461277082925e-08	2.396805740122782e-07	3.952077288876539e-07	2.069715074822523e-07
1.54	0.01415861035759231	-0.004932094385259995	0.8858358113952701	0.5353230393458153	-0.2884037247203748	-0.2172363207208531	-0.7456514384554289	0.5757545677625248	0.5757545677624613	-0.06502104402067524	-0.1715725535045159	0.08218949482807721	0.03712054828365333	0.4210218834464148	0.237431332840792	0.3215240063628745	-1.848851023401856	0.2103383878547107	-0.6184444549777811	0.9220392894869144	-1.738634668896652	-1.738634668896655	0.05737994817749879	-0.01582472489227791	-0.34793165321787	0.10894086014553	-0.1676840409064477	0.07067533773510398	-0.00814818285917015	-0.1713350099248573	0.09046220956444646	-0.004545015951000459	0.2462613407210919	-14.03230807378463	2.982607344741723	0.7244315847124493	-5.892566944231026	-652.0052246253434	-34.39941418049308	-21.5847904643559	8.872631273735177e-05	0.5197883119789706	-0.7082385425271203	0.2690138892442712	0.4153255367463736	0.4071550456664046	1.333549433158822	0.4804204651117826	0.48042046511178	-0.2037717151152835	-0.008139834882939578	0.482915159909199	0.5614623640106091	1.975907093012096e-07	7.982468047332336e-07	-9.038678006671788e-07	4.080173338676951e-08	2.463604883007279e-07	4.01358199201663e-07	2.038028009550918e-07
1.55	0.01836832926577771	-0.002532205968950922	0.8890152200150887	0.51684971197984	-0.2862809816994087	-0.2233995867062297	-0.7363663833910595	0.558393952346724	0.5583939523467056	-0.06445986366665597	-0.1717318609304185	0.07873425912585728	0.03823641922811368	0.4208527155267778	0.2425001117348345	0.3143125189539827	-1.845563254802932	0.2141492197809224	-0.6141233514147011	0.9347872731986878	-1.733261676904517	-1.733261676904509	0.0547946250492521	-0.01602794259114456	-0.3430797539608184	0.1141776361247169	-0.1588834800260811	0.06829568077556966	-0.008139010852108936	-0.1709023650880145	0.09359105646313312	-0.005770222100416863	0.2383430419814951	-12.92386870942114	3.266341949441007	0.7412114776042272	-5.942742885422601	-648.8586281841614	-34.72165171362118	-21.97322127592453	-0.03577926763962119	0.4934943655890857	-0.7343323850947364	0.3963585071441895	0.3548185974328741	0.4575915812655482	1.217755311737348	0.5997097716269096	0.5997097716285328	-0.2950542541785811	-0.02526787004677924	0.4917162364747623	0.4964105123073944	1.94327498232337e-07	7.852935186254011e-07	-8.880586772572588e-07	3.864701766401847e-08	2.527243471535999e-07	4.044142682718696e-07	1.994244697709305e-07
